<?xml version="1.0" encoding="utf-8"?>
<svg xmlns="http://www.w3.org/2000/svg" viewBox="0 0 512 512">
  <rect width="512" height="512" rx="96" fill="#2e3440"/>
  <g transform="translate(106 106) scale(3.0)">
    <path fill="#ebcb8b" d="M80.5,18.9C75.3,9.9,68.1,5,60.4,5H39.6c-7.8,0-14.9,4.9-20.1,13.9c-4.9,8.4-7.6,19.4-7.6,31.1s2.7,22.8,7.6,31.1
      c5.2,9,12.4,13.9,20.1,13.9h20.8c7.8,0,14.9-4.9,20.1-13.9c4.9-8.4,7.6-19.4,7.6-31.1S85.4,27.2,80.5,18.9z M81.1,46.5H67.2
      c-0.3-7.1-1.7-14.1-4.2-20.8h13.2C78.9,31.6,80.7,38.8,81.1,46.5z M72.1,18.8H59.7c-1.4-2.5-3.2-4.8-5.2-6.9h5.9
      C64.7,11.9,68.8,14.5,72.1,18.8z M60.4,88.1h-5.8c2-2.1,3.7-4.4,5.2-6.9h12.4C68.8,85.5,64.7,88.1,60.4,88.1z M76.3,74.2H63
      c2.5-6.7,3.9-13.7,4.2-20.8h13.8C80.7,61.2,78.9,68.4,76.3,74.2z"/>
  </g>
</svg>
